<svg width="249" height="49" viewBox="0 0 249 49" fill="none" xmlns="http://www.w3.org/2000/svg">
<g clip-path="url(#clip0_325_4)">
<path d="M16.864 48.4185H0V2.61661H16.8418C21.4903 2.61661 25.4929 3.53355 28.8493 5.36741C32.2207 7.18637 34.8197 9.81044 36.6464 13.2396C38.4732 16.6539 39.3866 20.7391 39.3866 25.4952C39.3866 30.2662 38.4732 34.3663 36.6464 37.7955C34.8345 41.2247 32.2429 43.8562 28.8716 45.6901C25.5003 47.5091 21.4978 48.4185 16.864 48.4185ZM11.0273 38.9808H16.4408C18.9953 38.9808 21.1562 38.5485 22.9235 37.6837C24.7057 36.804 26.0498 35.3802 26.9557 33.4121C27.8765 31.4292 28.3369 28.7902 28.3369 25.4952C28.3369 22.2002 27.8765 19.5761 26.9557 17.623C26.0349 15.655 24.676 14.2386 22.879 13.3738C21.0968 12.4941 18.8987 12.0543 16.2848 12.0543H11.0273V38.9808Z" fill="white"/>
<path d="M52.6479 49C50.4647 49 48.5266 48.6347 46.8335 47.9042C45.1553 47.1587 43.826 46.0405 42.8458 44.5495C41.8805 43.0437 41.3978 41.1576 41.3978 38.8914C41.3978 36.983 41.7319 35.3727 42.4003 34.0607C43.0686 32.7487 43.9894 31.6826 45.1627 30.8626C46.336 30.0426 47.6875 29.4239 49.2172 29.0064C50.7469 28.574 52.3806 28.2833 54.1182 28.1342C56.0638 27.9553 57.6306 27.7689 58.8188 27.5751C60.0069 27.3663 60.8683 27.0756 61.403 26.7029C61.9525 26.3152 62.2272 25.771 62.2272 25.0703V24.9585C62.2272 23.8104 61.8336 22.9233 61.0465 22.2971C60.2594 21.6709 59.1975 21.3578 57.8608 21.3578C56.4202 21.3578 55.2618 21.6709 54.3856 22.2971C53.5093 22.9233 52.9524 23.7881 52.7147 24.8914L42.6676 24.5335C42.9646 22.4462 43.7295 20.5825 44.9622 18.9425C46.2097 17.2875 47.9177 15.9904 50.086 15.0511C52.2692 14.0969 54.8905 13.6198 57.9499 13.6198C60.1331 13.6198 62.1455 13.8807 63.9871 14.4026C65.8287 14.9095 67.4327 15.655 68.7991 16.639C70.1654 17.6081 71.2199 18.8009 71.9625 20.2173C72.7199 21.6337 73.0986 23.2513 73.0986 25.0703V48.4185H62.851V43.6326H62.5837C61.9747 44.7955 61.195 45.7796 60.2445 46.5847C59.3089 47.3898 58.2024 47.9936 56.9252 48.3962C55.6628 48.7987 54.237 49 52.6479 49ZM56.0118 41.8435C57.1851 41.8435 58.2396 41.6049 59.1752 41.1278C60.1257 40.6507 60.8831 39.9947 61.4475 39.1597C62.0119 38.3099 62.2941 37.3259 62.2941 36.2077V32.9425C61.9822 33.1065 61.6035 33.2556 61.1579 33.3898C60.7272 33.524 60.252 33.6507 59.7321 33.77C59.2123 33.8892 58.6777 33.9936 58.1282 34.0831C57.5787 34.1725 57.0514 34.2545 56.5465 34.3291C55.5217 34.4931 54.6455 34.7465 53.9177 35.0895C53.2048 35.4324 52.6553 35.8797 52.2692 36.4313C51.8979 36.9681 51.7123 37.6092 51.7123 38.3546C51.7123 39.4878 52.1132 40.3525 52.9152 40.9489C53.7321 41.5453 54.7643 41.8435 56.0118 41.8435Z" fill="white"/>
<path d="M96.2512 14.0671V22.1182H74.6643V14.0671H96.2512ZM79.1866 5.83707H90.0803V37.6166C90.0803 38.2875 90.1843 38.8317 90.3922 39.2492C90.615 39.6518 90.9343 39.9425 91.3501 40.1214C91.766 40.2854 92.2635 40.3674 92.8427 40.3674C93.2586 40.3674 93.6967 40.3301 94.1571 40.2556C94.6323 40.1661 94.9888 40.0916 95.2264 40.0319L96.8749 47.9265C96.3551 48.0756 95.62 48.262 94.6695 48.4856C93.7338 48.7093 92.6125 48.8509 91.3056 48.9105C88.7511 49.0298 86.5605 48.7316 84.7337 48.016C82.9218 47.2854 81.5332 46.1523 80.5678 44.6166C79.6173 43.0809 79.1569 41.1502 79.1866 38.8243V5.83707Z" fill="white"/>
<path d="M108.633 49C106.449 49 104.511 48.6347 102.818 47.9042C101.14 47.1587 99.8107 46.0405 98.8304 44.5495C97.8651 43.0437 97.3824 41.1576 97.3824 38.8914C97.3824 36.983 97.7166 35.3727 98.3849 34.0607C99.0532 32.7487 99.974 31.6826 101.147 30.8626C102.321 30.0426 103.672 29.4239 105.202 29.0064C106.732 28.574 108.365 28.2833 110.103 28.1342C112.048 27.9553 113.615 27.7689 114.803 27.5751C115.992 27.3663 116.853 27.0756 117.388 26.7029C117.937 26.3152 118.212 25.771 118.212 25.0703V24.9585C118.212 23.8104 117.818 22.9233 117.031 22.2971C116.244 21.6709 115.182 21.3578 113.845 21.3578C112.405 21.3578 111.246 21.6709 110.37 22.2971C109.494 22.9233 108.937 23.7881 108.699 24.8914L98.6522 24.5335C98.9493 22.4462 99.7141 20.5825 100.947 18.9425C102.194 17.2875 103.902 15.9904 106.071 15.0511C108.254 14.0969 110.875 13.6198 113.935 13.6198C116.118 13.6198 118.13 13.8807 119.972 14.4026C121.813 14.9095 123.417 15.655 124.784 16.639C126.15 17.6081 127.205 18.8009 127.947 20.2173C128.705 21.6337 129.083 23.2513 129.083 25.0703V48.4185H118.836V43.6326H118.568C117.959 44.7955 117.18 45.7796 116.229 46.5847C115.293 47.3898 114.187 47.9936 112.91 48.3962C111.647 48.7987 110.222 49 108.633 49ZM111.996 41.8435C113.17 41.8435 114.224 41.6049 115.16 41.1278C116.11 40.6507 116.868 39.9947 117.432 39.1597C117.996 38.3099 118.279 37.3259 118.279 36.2077V32.9425C117.967 33.1065 117.588 33.2556 117.143 33.3898C116.712 33.524 116.237 33.6507 115.717 33.77C115.197 33.8892 114.662 33.9936 114.113 34.0831C113.563 34.1725 113.036 34.2545 112.531 34.3291C111.506 34.4931 110.63 34.7465 109.902 35.0895C109.189 35.4324 108.64 35.8797 108.254 36.4313C107.883 36.9681 107.697 37.6092 107.697 38.3546C107.697 39.4878 108.098 40.3525 108.9 40.9489C109.717 41.5453 110.749 41.8435 111.996 41.8435Z" fill="white"/>
<path d="M133.434 48.4185V2.61661H143.08V40.4345H162.639V48.4185H133.434Z" fill="white"/>
<path d="M166.026 48.4185V14.0671H175.516V48.4185H166.026ZM170.794 9.63898C169.383 9.63898 168.172 9.16933 167.162 8.23003C166.167 7.27583 165.67 6.13525 165.67 4.80831C165.67 3.49627 166.167 2.37061 167.162 1.43131C168.172 0.477104 169.383 0 170.794 0C172.204 0 173.407 0.477104 174.403 1.43131C175.412 2.37061 175.917 3.49627 175.917 4.80831C175.917 6.13525 175.412 7.27583 174.403 8.23003C173.407 9.16933 172.204 9.63898 170.794 9.63898Z" fill="white"/>
<path d="M189.786 28.5591V48.4185H180.296V14.0671H189.34V20.1278H189.741C190.499 18.1299 191.768 16.5495 193.551 15.3866C195.333 14.2087 197.494 13.6198 200.033 13.6198C202.41 13.6198 204.481 14.1416 206.249 15.1853C208.016 16.229 209.39 17.7199 210.37 19.6581C211.35 21.5815 211.84 23.8775 211.84 26.5463V48.4185H202.35V28.246C202.365 26.1438 201.83 24.5037 200.746 23.3259C199.662 22.1331 198.17 21.5367 196.269 21.5367C194.991 21.5367 193.863 21.8126 192.882 22.3642C191.917 22.9159 191.16 23.721 190.61 24.7796C190.075 25.8232 189.801 27.0831 189.786 28.5591Z" fill="white"/>
<path d="M225.096 38.5335L225.119 27.1054H226.5L237.46 14.0671H248.354L233.629 31.3323H231.379L225.096 38.5335ZM216.497 48.4185V2.61661H225.987V48.4185H216.497ZM237.884 48.4185L227.814 33.4569L234.141 26.7252L249 48.4185H237.884Z" fill="white"/>
</g>
<defs>
<clipPath id="clip0_325_4">
<rect width="249" height="49" fill="white"/>
</clipPath>
</defs>
</svg>
