<svg width="250" height="28" viewBox="0 0 250 28" fill="none" xmlns="http://www.w3.org/2000/svg">
<path fill-rule="evenodd" clip-rule="evenodd" d="M6.81781 27.579H0V0H6.81781V17.3213L17.8257 0H24.6672V27.579H17.8257V10.2066L6.81781 27.579ZM47.1802 16.7131H36.2196V27.579H29.4018V0H36.2196V11.3867H47.1802V0H53.998V27.579H47.1802V16.7131ZM70.7112 0V2.76694C69.2391 2.85383 67.8503 3.06782 66.5447 3.40891C64.7929 3.8508 63.27 4.52943 61.9758 5.44478C60.6817 6.34436 59.6717 7.48855 58.9457 8.87736C58.2197 10.2662 57.8567 11.8917 57.8567 13.754C57.8567 15.6478 58.2197 17.3049 58.9457 18.7253C59.6717 20.1457 60.6817 21.3293 61.9758 22.2763C63.27 23.2074 64.7929 23.9097 66.5447 24.3832C67.8503 24.7242 69.2391 24.9382 70.7112 25.0251V27.579H77.529V25.0215C78.9873 24.9324 80.3603 24.7196 81.6481 24.3832C83.3999 23.9097 84.9228 23.2074 86.2169 22.2763C87.5111 21.3293 88.5132 20.1457 89.2234 18.7253C89.9494 17.2892 90.3124 15.6163 90.3124 13.7066C90.3124 11.8444 89.9494 10.2267 89.2234 8.85369C88.5132 7.48066 87.5111 6.34436 86.2169 5.44478C84.9228 4.52943 83.3999 3.8508 81.6481 3.40891C80.3603 3.07247 78.9873 2.85969 77.529 2.77056V0H70.7112ZM68.1308 8.4039C68.8981 8.11051 69.7582 7.92201 70.7112 7.8384V19.9538C69.7543 19.8703 68.8863 19.6817 68.1071 19.3882C67.0182 18.962 66.1738 18.2913 65.5741 17.376C64.9744 16.4448 64.6903 15.2375 64.7219 13.754C64.7377 12.3336 65.0375 11.1894 65.6215 10.3214C66.2212 9.43762 67.0576 8.79845 68.1308 8.4039ZM80.1093 19.3645C79.3452 19.6679 78.4851 19.8633 77.529 19.9506V7.83946C78.4851 7.92359 79.3452 8.11174 80.1093 8.4039C81.1825 8.79845 82.011 9.42973 82.595 10.2977C83.1789 11.1657 83.4709 12.3021 83.4709 13.7066C83.4709 15.2059 83.1789 16.4211 82.595 17.3523C82.011 18.2676 81.1825 18.9384 80.1093 19.3645ZM101.036 27.579H94.2184V0H101.036V17.3213L112.044 0H118.886V27.579H112.044V10.2066L101.036 27.579ZM130.438 16.7131H141.399V27.579H148.216V0H141.399V11.3867H130.438V0H123.62V27.579H130.438V16.7131ZM159.745 27.579H152.927V0H159.739H159.745V0.00449106L173.634 10.7057L187.527 0H194.369V27.579H187.527H187.525L173.634 16.8609L159.745 27.579ZM169.643 13.7811L159.745 6.14409V21.4081L169.643 13.7811ZM177.625 13.781L187.527 21.4101V6.14005L177.625 13.781ZM213.165 5.35009V27.579H206.3V5.35009H197.517V0H206.3H213.165H222.137V5.35009H213.165ZM232.151 27.579H225.333V0H232.151V17.3213L243.159 0H250V27.579H243.159V10.2066L232.151 27.579Z" fill="white"/>
</svg>
